<svg width="1361" height="1502" viewBox="0 0 1361 1502" fill="none" xmlns="http://www.w3.org/2000/svg">
<g opacity="0.2" filter="url(#filter0_f_105_37)">
<ellipse cx="690.5" cy="751" rx="670.5" ry="350" fill="#338AF3"/>
</g>
<path d="M44.0349 1034C45.5302 1034 46.6622 1034.63 47.4308 1035.89C48.2134 1037.14 48.6047 1038.95 48.6047 1041.34C48.6047 1043.72 48.2134 1045.54 47.4308 1046.8C46.6622 1048.06 45.5302 1048.69 44.0349 1048.69C42.5536 1048.69 41.4216 1048.06 40.639 1046.8C39.8564 1045.54 39.4651 1043.72 39.4651 1041.34C39.4651 1038.97 39.8564 1037.15 40.639 1035.89C41.4216 1034.63 42.5536 1034 44.0349 1034ZM40.9534 1041.34C40.9534 1043.03 41.1072 1044.35 41.4146 1045.31L46.0683 1036.1C45.5791 1035.45 44.9013 1035.12 44.0349 1035.12C43.0706 1035.12 42.316 1035.63 41.771 1036.66C41.2259 1037.67 40.9534 1039.23 40.9534 1041.34ZM44.0349 1047.55C45.0131 1047.55 45.7748 1047.04 46.3198 1046.03C46.8648 1045.01 47.1373 1043.44 47.1373 1041.34C47.1373 1039.55 46.9627 1038.16 46.6133 1037.18L41.9596 1046.47C42.4627 1047.19 43.1545 1047.55 44.0349 1047.55Z" fill="url(#paint0_linear_105_37)" fill-opacity="0.6"/>
<path d="M45.2926 1071.13H48.3741V1072.24H40.3874V1071.13H43.9511V1059.46L40.5551 1061.47L39.9682 1060.54L44.1607 1057.96H45.2926V1071.13Z" fill="url(#paint1_linear_105_37)" fill-opacity="0.6"/>
<path d="M44.0349 1081.5C45.5302 1081.5 46.6622 1082.13 47.4308 1083.39C48.2134 1084.64 48.6047 1086.46 48.6047 1088.84C48.6047 1091.22 48.2134 1093.04 47.4308 1094.3C46.6622 1095.56 45.5302 1096.2 44.0349 1096.2C42.5536 1096.2 41.4216 1095.56 40.639 1094.3C39.8564 1093.04 39.4651 1091.22 39.4651 1088.84C39.4651 1086.47 39.8564 1084.65 40.639 1083.39C41.4216 1082.13 42.5536 1081.5 44.0349 1081.5ZM40.9534 1088.84C40.9534 1090.53 41.1072 1091.85 41.4146 1092.81L46.0683 1083.6C45.5791 1082.95 44.9013 1082.62 44.0349 1082.62C43.0706 1082.62 42.316 1083.14 41.771 1084.16C41.2259 1085.17 40.9534 1086.73 40.9534 1088.84ZM44.0349 1095.05C45.0131 1095.05 45.7748 1094.55 46.3198 1093.53C46.8648 1092.51 47.1373 1090.94 47.1373 1088.84C47.1373 1087.05 46.9627 1085.67 46.6133 1084.68L41.9596 1093.97C42.4627 1094.69 43.1545 1095.05 44.0349 1095.05Z" fill="url(#paint2_linear_105_37)" fill-opacity="0.6"/>
<path d="M45.2926 1118.64H48.3741V1119.74H40.3874V1118.64H43.9511V1106.96L40.5551 1108.97L39.9682 1108.04L44.1607 1105.46H45.2926V1118.64Z" fill="url(#paint3_linear_105_37)" fill-opacity="0.6"/>
<path d="M45.2926 1142.39H48.3741V1143.49H40.3874V1142.39H43.9511V1130.71L40.5551 1132.72L39.9682 1131.79L44.1607 1129.21H45.2926V1142.39Z" fill="url(#paint4_linear_105_37)" fill-opacity="0.6"/>
<path d="M44.0349 1152.76C45.5302 1152.76 46.6622 1153.39 47.4308 1154.65C48.2134 1155.89 48.6047 1157.71 48.6047 1160.09C48.6047 1162.47 48.2134 1164.3 47.4308 1165.56C46.6622 1166.82 45.5302 1167.45 44.0349 1167.45C42.5536 1167.45 41.4216 1166.82 40.639 1165.56C39.8564 1164.3 39.4651 1162.47 39.4651 1160.09C39.4651 1157.72 39.8564 1155.91 40.639 1154.65C41.4216 1153.39 42.5536 1152.76 44.0349 1152.76ZM40.9534 1160.09C40.9534 1161.78 41.1072 1163.1 41.4146 1164.06L46.0683 1154.85C45.5791 1154.2 44.9013 1153.88 44.0349 1153.88C43.0706 1153.88 42.316 1154.39 41.771 1155.42C41.2259 1156.43 40.9534 1157.99 40.9534 1160.09ZM44.0349 1166.31C45.0131 1166.31 45.7748 1165.8 46.3198 1164.79C46.8648 1163.76 47.1373 1162.2 47.1373 1160.09C47.1373 1158.3 46.9627 1156.92 46.6133 1155.93L41.9596 1165.22C42.4627 1165.95 43.1545 1166.31 44.0349 1166.31Z" fill="url(#paint5_linear_105_37)" fill-opacity="0.6"/>
<path d="M45.2926 1189.89H48.3741V1190.99H40.3874V1189.89H43.9511V1178.21L40.5551 1180.23L39.9682 1179.29L44.1607 1176.71H45.2926V1189.89Z" fill="url(#paint6_linear_105_37)" fill-opacity="0.6"/>
<path d="M44.0349 1200.26C45.5302 1200.26 46.6622 1200.89 47.4308 1202.15C48.2134 1203.4 48.6047 1205.21 48.6047 1207.59C48.6047 1209.98 48.2134 1211.8 47.4308 1213.06C46.6622 1214.32 45.5302 1214.95 44.0349 1214.95C42.5536 1214.95 41.4216 1214.32 40.639 1213.06C39.8564 1211.8 39.4651 1209.98 39.4651 1207.59C39.4651 1205.22 39.8564 1203.41 40.639 1202.15C41.4216 1200.89 42.5536 1200.26 44.0349 1200.26ZM40.9534 1207.59C40.9534 1209.28 41.1072 1210.61 41.4146 1211.56L46.0683 1202.36C45.5791 1201.71 44.9013 1201.38 44.0349 1201.38C43.0706 1201.38 42.316 1201.89 41.771 1202.92C41.2259 1203.93 40.9534 1205.49 40.9534 1207.59ZM44.0349 1213.81C45.0131 1213.81 45.7748 1213.3 46.3198 1212.29C46.8648 1211.27 47.1373 1209.7 47.1373 1207.59C47.1373 1205.81 46.9627 1204.42 46.6133 1203.44L41.9596 1212.73C42.4627 1213.45 43.1545 1213.81 44.0349 1213.81Z" fill="url(#paint7_linear_105_37)" fill-opacity="0.6"/>
<path d="M44.0349 1224.01C45.5302 1224.01 46.6622 1224.64 47.4308 1225.9C48.2134 1227.15 48.6047 1228.96 48.6047 1231.34C48.6047 1233.73 48.2134 1235.55 47.4308 1236.81C46.6622 1238.07 45.5302 1238.7 44.0349 1238.7C42.5536 1238.7 41.4216 1238.07 40.639 1236.81C39.8564 1235.55 39.4651 1233.73 39.4651 1231.34C39.4651 1228.98 39.8564 1227.16 40.639 1225.9C41.4216 1224.64 42.5536 1224.01 44.0349 1224.01ZM40.9534 1231.34C40.9534 1233.03 41.1072 1234.36 41.4146 1235.31L46.0683 1226.11C45.5791 1225.46 44.9013 1225.13 44.0349 1225.13C43.0706 1225.13 42.316 1225.64 41.771 1226.67C41.2259 1227.68 40.9534 1229.24 40.9534 1231.34ZM44.0349 1237.56C45.0131 1237.56 45.7748 1237.05 46.3198 1236.04C46.8648 1235.02 47.1373 1233.45 47.1373 1231.34C47.1373 1229.56 46.9627 1228.17 46.6133 1227.19L41.9596 1236.48C42.4627 1237.2 43.1545 1237.56 44.0349 1237.56Z" fill="url(#paint8_linear_105_37)" fill-opacity="0.6"/>
<path d="M45.2926 1261.14H48.3741V1262.24H40.3874V1261.14H43.9511V1249.46L40.5551 1251.48L39.9682 1250.54L44.1607 1247.97H45.2926V1261.14Z" fill="url(#paint9_linear_105_37)" fill-opacity="0.6"/>
<path d="M44.0349 1271.51C45.5302 1271.51 46.6622 1272.14 47.4308 1273.4C48.2134 1274.65 48.6047 1276.46 48.6047 1278.85C48.6047 1281.23 48.2134 1283.05 47.4308 1284.31C46.6622 1285.57 45.5302 1286.2 44.0349 1286.2C42.5536 1286.2 41.4216 1285.57 40.639 1284.31C39.8564 1283.05 39.4651 1281.23 39.4651 1278.85C39.4651 1276.48 39.8564 1274.66 40.639 1273.4C41.4216 1272.14 42.5536 1271.51 44.0349 1271.51ZM40.9534 1278.85C40.9534 1280.54 41.1072 1281.86 41.4146 1282.82L46.0683 1273.61C45.5791 1272.96 44.9013 1272.63 44.0349 1272.63C43.0706 1272.63 42.316 1273.15 41.771 1274.17C41.2259 1275.18 40.9534 1276.74 40.9534 1278.85ZM44.0349 1285.06C45.0131 1285.06 45.7748 1284.55 46.3198 1283.54C46.8648 1282.52 47.1373 1280.95 47.1373 1278.85C47.1373 1277.06 46.9627 1275.67 46.6133 1274.69L41.9596 1283.98C42.4627 1284.7 43.1545 1285.06 44.0349 1285.06Z" fill="url(#paint10_linear_105_37)" fill-opacity="0.6"/>
<path d="M45.2926 1308.65H48.3741V1309.75H40.3874V1308.65H43.9511V1296.97L40.5551 1298.98L39.9682 1298.05L44.1607 1295.47H45.2926V1308.65Z" fill="url(#paint11_linear_105_37)" fill-opacity="0.6"/>
<path d="M45.2926 1332.4H48.3741V1333.5H40.3874V1332.4H43.9511V1320.72L40.5551 1322.73L39.9682 1321.8L44.1607 1319.22H45.2926V1332.4Z" fill="url(#paint12_linear_105_37)" fill-opacity="0.6"/>
<path d="M82.9651 1081.5C84.4604 1081.5 85.5924 1082.13 86.361 1083.39C87.1436 1084.64 87.5349 1086.46 87.5349 1088.84C87.5349 1091.22 87.1436 1093.04 86.361 1094.3C85.5924 1095.56 84.4604 1096.2 82.9651 1096.2C81.4838 1096.2 80.3518 1095.56 79.5692 1094.3C78.7866 1093.04 78.3953 1091.22 78.3953 1088.84C78.3953 1086.47 78.7866 1084.65 79.5692 1083.39C80.3518 1082.13 81.4838 1081.5 82.9651 1081.5ZM79.8836 1088.84C79.8836 1090.53 80.0374 1091.85 80.3448 1092.81L84.9985 1083.6C84.5093 1082.95 83.8315 1082.62 82.9651 1082.62C82.0008 1082.62 81.2462 1083.14 80.7012 1084.16C80.1561 1085.17 79.8836 1086.73 79.8836 1088.84ZM82.9651 1095.05C83.9433 1095.05 84.705 1094.55 85.25 1093.53C85.795 1092.51 86.0675 1090.94 86.0675 1088.84C86.0675 1087.05 85.8928 1085.67 85.5435 1084.68L80.8898 1093.97C81.3929 1094.69 82.0847 1095.05 82.9651 1095.05Z" fill="url(#paint13_linear_105_37)" fill-opacity="0.6"/>
<path d="M84.2228 1118.64H87.3043V1119.74H79.3176V1118.64H82.8812V1106.96L79.4853 1108.97L78.8984 1108.04L83.0909 1105.46H84.2228V1118.64Z" fill="url(#paint14_linear_105_37)" fill-opacity="0.6"/>
<path d="M82.9651 1129C84.4604 1129 85.5924 1129.63 86.361 1130.9C87.1436 1132.14 87.5349 1133.96 87.5349 1136.34C87.5349 1138.72 87.1436 1140.55 86.361 1141.81C85.5924 1143.07 84.4604 1143.7 82.9651 1143.7C81.4838 1143.7 80.3518 1143.07 79.5692 1141.81C78.7866 1140.55 78.3953 1138.72 78.3953 1136.34C78.3953 1133.97 78.7866 1132.16 79.5692 1130.9C80.3518 1129.63 81.4838 1129 82.9651 1129ZM79.8836 1136.34C79.8836 1138.03 80.0374 1139.35 80.3448 1140.31L84.9985 1131.1C84.5093 1130.45 83.8315 1130.13 82.9651 1130.13C82.0008 1130.13 81.2462 1130.64 80.7012 1131.66C80.1561 1132.68 79.8836 1134.23 79.8836 1136.34ZM82.9651 1142.55C83.9433 1142.55 84.705 1142.05 85.25 1141.04C85.795 1140.01 86.0675 1138.45 86.0675 1136.34C86.0675 1134.55 85.8928 1133.17 85.5435 1132.18L80.8898 1141.47C81.3929 1142.19 82.0847 1142.55 82.9651 1142.55Z" fill="url(#paint15_linear_105_37)" fill-opacity="0.6"/>
<path d="M82.9651 1152.76C84.4604 1152.76 85.5924 1153.39 86.361 1154.65C87.1436 1155.89 87.5349 1157.71 87.5349 1160.09C87.5349 1162.47 87.1436 1164.3 86.361 1165.56C85.5924 1166.82 84.4604 1167.45 82.9651 1167.45C81.4838 1167.45 80.3518 1166.82 79.5692 1165.56C78.7866 1164.3 78.3953 1162.47 78.3953 1160.09C78.3953 1157.72 78.7866 1155.91 79.5692 1154.65C80.3518 1153.39 81.4838 1152.76 82.9651 1152.76ZM79.8836 1160.09C79.8836 1161.78 80.0374 1163.1 80.3448 1164.06L84.9985 1154.85C84.5093 1154.2 83.8315 1153.88 82.9651 1153.88C82.0008 1153.88 81.2462 1154.39 80.7012 1155.42C80.1561 1156.43 79.8836 1157.99 79.8836 1160.09ZM82.9651 1166.31C83.9433 1166.31 84.705 1165.8 85.25 1164.79C85.795 1163.76 86.0675 1162.2 86.0675 1160.09C86.0675 1158.3 85.8928 1156.92 85.5435 1155.93L80.8898 1165.22C81.3929 1165.95 82.0847 1166.31 82.9651 1166.31Z" fill="url(#paint16_linear_105_37)" fill-opacity="0.6"/>
<path d="M84.2228 1189.89H87.3043V1190.99H79.3176V1189.89H82.8812V1178.21L79.4853 1180.23L78.8984 1179.29L83.0909 1176.71H84.2228V1189.89Z" fill="url(#paint17_linear_105_37)" fill-opacity="0.6"/>
<path d="M82.9651 1200.26C84.4604 1200.26 85.5924 1200.89 86.361 1202.15C87.1436 1203.4 87.5349 1205.21 87.5349 1207.59C87.5349 1209.98 87.1436 1211.8 86.361 1213.06C85.5924 1214.32 84.4604 1214.95 82.9651 1214.95C81.4838 1214.95 80.3518 1214.32 79.5692 1213.06C78.7866 1211.8 78.3953 1209.98 78.3953 1207.59C78.3953 1205.22 78.7866 1203.41 79.5692 1202.15C80.3518 1200.89 81.4838 1200.26 82.9651 1200.26ZM79.8836 1207.59C79.8836 1209.28 80.0374 1210.61 80.3448 1211.56L84.9985 1202.36C84.5093 1201.71 83.8315 1201.38 82.9651 1201.38C82.0008 1201.38 81.2462 1201.89 80.7012 1202.92C80.1561 1203.93 79.8836 1205.49 79.8836 1207.59ZM82.9651 1213.81C83.9433 1213.81 84.705 1213.3 85.25 1212.29C85.795 1211.27 86.0675 1209.7 86.0675 1207.59C86.0675 1205.81 85.8928 1204.42 85.5435 1203.44L80.8898 1212.73C81.3929 1213.45 82.0847 1213.81 82.9651 1213.81Z" fill="url(#paint18_linear_105_37)" fill-opacity="0.6"/>
<path d="M84.2228 1237.39H87.3043V1238.49H79.3176V1237.39H82.8812V1225.71L79.4853 1227.73L78.8984 1226.79L83.0909 1224.22H84.2228V1237.39Z" fill="url(#paint19_linear_105_37)" fill-opacity="0.6"/>
<path d="M82.9651 1247.76C84.4604 1247.76 85.5924 1248.39 86.361 1249.65C87.1436 1250.9 87.5349 1252.71 87.5349 1255.1C87.5349 1257.48 87.1436 1259.3 86.361 1260.56C85.5924 1261.82 84.4604 1262.45 82.9651 1262.45C81.4838 1262.45 80.3518 1261.82 79.5692 1260.56C78.7866 1259.3 78.3953 1257.48 78.3953 1255.1C78.3953 1252.73 78.7866 1250.91 79.5692 1249.65C80.3518 1248.39 81.4838 1247.76 82.9651 1247.76ZM79.8836 1255.1C79.8836 1256.79 80.0374 1258.11 80.3448 1259.07L84.9985 1249.86C84.5093 1249.21 83.8315 1248.88 82.9651 1248.88C82.0008 1248.88 81.2462 1249.39 80.7012 1250.42C80.1561 1251.43 79.8836 1252.99 79.8836 1255.1ZM82.9651 1261.31C83.9433 1261.31 84.705 1260.8 85.25 1259.79C85.795 1258.77 86.0675 1257.2 86.0675 1255.1C86.0675 1253.31 85.8928 1251.92 85.5435 1250.94L80.8898 1260.23C81.3929 1260.95 82.0847 1261.31 82.9651 1261.31Z" fill="url(#paint20_linear_105_37)" fill-opacity="0.6"/>
<path d="M82.9651 1271.51C84.4604 1271.51 85.5924 1272.14 86.361 1273.4C87.1436 1274.65 87.5349 1276.46 87.5349 1278.85C87.5349 1281.23 87.1436 1283.05 86.361 1284.31C85.5924 1285.57 84.4604 1286.2 82.9651 1286.2C81.4838 1286.2 80.3518 1285.57 79.5692 1284.31C78.7866 1283.05 78.3953 1281.23 78.3953 1278.85C78.3953 1276.48 78.7866 1274.66 79.5692 1273.4C80.3518 1272.14 81.4838 1271.51 82.9651 1271.51ZM79.8836 1278.85C79.8836 1280.54 80.0374 1281.86 80.3448 1282.82L84.9985 1273.61C84.5093 1272.96 83.8315 1272.63 82.9651 1272.63C82.0008 1272.63 81.2462 1273.15 80.7012 1274.17C80.1561 1275.18 79.8836 1276.74 79.8836 1278.85ZM82.9651 1285.06C83.9433 1285.06 84.705 1284.55 85.25 1283.54C85.795 1282.52 86.0675 1280.95 86.0675 1278.85C86.0675 1277.06 85.8928 1275.67 85.5435 1274.69L80.8898 1283.98C81.3929 1284.7 82.0847 1285.06 82.9651 1285.06Z" fill="url(#paint21_linear_105_37)" fill-opacity="0.6"/>
<path d="M84.2228 1308.65H87.3043V1309.75H79.3176V1308.65H82.8812V1296.97L79.4853 1298.98L78.8984 1298.05L83.0909 1295.47H84.2228V1308.65Z" fill="url(#paint22_linear_105_37)" fill-opacity="0.6"/>
<path d="M82.9651 1319.01C84.4604 1319.01 85.5924 1319.64 86.361 1320.9C87.1436 1322.15 87.5349 1323.97 87.5349 1326.35C87.5349 1328.73 87.1436 1330.55 86.361 1331.81C85.5924 1333.08 84.4604 1333.71 82.9651 1333.71C81.4838 1333.71 80.3518 1333.08 79.5692 1331.81C78.7866 1330.55 78.3953 1328.73 78.3953 1326.35C78.3953 1323.98 78.7866 1322.16 79.5692 1320.9C80.3518 1319.64 81.4838 1319.01 82.9651 1319.01ZM79.8836 1326.35C79.8836 1328.04 80.0374 1329.36 80.3448 1330.32L84.9985 1321.11C84.5093 1320.46 83.8315 1320.13 82.9651 1320.13C82.0008 1320.13 81.2462 1320.65 80.7012 1321.67C80.1561 1322.68 79.8836 1324.24 79.8836 1326.35ZM82.9651 1332.56C83.9433 1332.56 84.705 1332.06 85.25 1331.05C85.795 1330.02 86.0675 1328.45 86.0675 1326.35C86.0675 1324.56 85.8928 1323.18 85.5435 1322.19L80.8898 1331.48C81.3929 1332.2 82.0847 1332.56 82.9651 1332.56Z" fill="url(#paint23_linear_105_37)" fill-opacity="0.6"/>
<path d="M84.2228 1356.15H87.3043V1357.25H79.3176V1356.15H82.8812V1344.47L79.4853 1346.48L78.8984 1345.55L83.0909 1342.97H84.2228V1356.15Z" fill="url(#paint24_linear_105_37)" fill-opacity="0.6"/>
<path d="M84.2228 1379.9H87.3043V1381H79.3176V1379.9H82.8812V1368.22L79.4853 1370.23L78.8984 1369.3L83.0909 1366.72H84.2228V1379.9Z" fill="url(#paint25_linear_105_37)" fill-opacity="0.6"/>
<path d="M24.5698 1105.25C26.0651 1105.25 27.1971 1105.88 27.9657 1107.14C28.7483 1108.39 29.1396 1110.21 29.1396 1112.59C29.1396 1114.97 28.7483 1116.79 27.9657 1118.05C27.1971 1119.32 26.0651 1119.95 24.5698 1119.95C23.0885 1119.95 21.9565 1119.32 21.1739 1118.05C20.3913 1116.79 20 1114.97 20 1112.59C20 1110.22 20.3913 1108.41 21.1739 1107.14C21.9565 1105.88 23.0885 1105.25 24.5698 1105.25ZM21.4883 1112.59C21.4883 1114.28 21.6421 1115.6 21.9495 1116.56L26.6032 1107.35C26.114 1106.7 25.4363 1106.38 24.5698 1106.38C23.6055 1106.38 22.8509 1106.89 22.3059 1107.91C21.7608 1108.92 21.4883 1110.48 21.4883 1112.59ZM24.5698 1118.8C25.5481 1118.8 26.3097 1118.3 26.8547 1117.29C27.3997 1116.26 27.6722 1114.7 27.6722 1112.59C27.6722 1110.8 27.4976 1109.42 27.1482 1108.43L22.4945 1117.72C22.9976 1118.44 23.6894 1118.8 24.5698 1118.8Z" fill="url(#paint26_linear_105_37)" fill-opacity="0.6"/>
<path d="M24.5698 1129C26.0651 1129 27.1971 1129.63 27.9657 1130.9C28.7483 1132.14 29.1396 1133.96 29.1396 1136.34C29.1396 1138.72 28.7483 1140.55 27.9657 1141.81C27.1971 1143.07 26.0651 1143.7 24.5698 1143.7C23.0885 1143.7 21.9565 1143.07 21.1739 1141.81C20.3913 1140.55 20 1138.72 20 1136.34C20 1133.97 20.3913 1132.16 21.1739 1130.9C21.9565 1129.63 23.0885 1129 24.5698 1129ZM21.4883 1136.34C21.4883 1138.03 21.6421 1139.35 21.9495 1140.31L26.6032 1131.1C26.114 1130.45 25.4363 1130.13 24.5698 1130.13C23.6055 1130.13 22.8509 1130.64 22.3059 1131.66C21.7608 1132.68 21.4883 1134.23 21.4883 1136.34ZM24.5698 1142.55C25.5481 1142.55 26.3097 1142.05 26.8547 1141.04C27.3997 1140.01 27.6722 1138.45 27.6722 1136.34C27.6722 1134.55 27.4976 1133.17 27.1482 1132.18L22.4945 1141.47C22.9976 1142.19 23.6894 1142.55 24.5698 1142.55Z" fill="url(#paint27_linear_105_37)" fill-opacity="0.6"/>
<path d="M25.8276 1166.14H28.909V1167.24H20.9223V1166.14H24.486V1154.46L21.09 1156.48L20.5031 1155.54L24.6956 1152.96H25.8276V1166.14Z" fill="url(#paint28_linear_105_37)" fill-opacity="0.6"/>
<path d="M24.5698 1176.51C26.0651 1176.51 27.1971 1177.14 27.9657 1178.4C28.7483 1179.64 29.1396 1181.46 29.1396 1183.84C29.1396 1186.23 28.7483 1188.05 27.9657 1189.31C27.1971 1190.57 26.0651 1191.2 24.5698 1191.2C23.0885 1191.2 21.9565 1190.57 21.1739 1189.31C20.3913 1188.05 20 1186.23 20 1183.84C20 1181.47 20.3913 1179.66 21.1739 1178.4C21.9565 1177.14 23.0885 1176.51 24.5698 1176.51ZM21.4883 1183.84C21.4883 1185.53 21.6421 1186.86 21.9495 1187.81L26.6032 1178.61C26.114 1177.95 25.4363 1177.63 24.5698 1177.63C23.6055 1177.63 22.8509 1178.14 22.3059 1179.17C21.7608 1180.18 21.4883 1181.74 21.4883 1183.84ZM24.5698 1190.06C25.5481 1190.06 26.3097 1189.55 26.8547 1188.54C27.3997 1187.51 27.6722 1185.95 27.6722 1183.84C27.6722 1182.06 27.4976 1180.67 27.1482 1179.69L22.4945 1188.98C22.9976 1189.7 23.6894 1190.06 24.5698 1190.06Z" fill="url(#paint29_linear_105_37)" fill-opacity="0.6"/>
<path d="M25.8276 1213.64H28.909V1214.74H20.9223V1213.64H24.486V1201.96L21.09 1203.98L20.5031 1203.04L24.6956 1200.47H25.8276V1213.64Z" fill="url(#paint30_linear_105_37)" fill-opacity="0.6"/>
<path d="M25.8276 1237.39H28.909V1238.49H20.9223V1237.39H24.486V1225.71L21.09 1227.73L20.5031 1226.79L24.6956 1224.22H25.8276V1237.39Z" fill="url(#paint31_linear_105_37)" fill-opacity="0.6"/>
<path d="M64.7577 1071.13H67.8392V1072.24H59.8525V1071.13H63.4162V1059.46L60.0202 1061.47L59.4333 1060.54L63.6258 1057.96H64.7577V1071.13Z" fill="url(#paint32_linear_105_37)" fill-opacity="0.6"/>
<path d="M63.5 1081.5C64.9953 1081.5 66.1273 1082.13 66.8959 1083.39C67.6785 1084.64 68.0698 1086.46 68.0698 1088.84C68.0698 1091.22 67.6785 1093.04 66.8959 1094.3C66.1273 1095.56 64.9953 1096.2 63.5 1096.2C62.0187 1096.2 60.8867 1095.56 60.1041 1094.3C59.3215 1093.04 58.9302 1091.22 58.9302 1088.84C58.9302 1086.47 59.3215 1084.65 60.1041 1083.39C60.8867 1082.13 62.0187 1081.5 63.5 1081.5ZM60.4185 1088.84C60.4185 1090.53 60.5723 1091.85 60.8797 1092.81L65.5334 1083.6C65.0442 1082.95 64.3664 1082.62 63.5 1082.62C62.5357 1082.62 61.7811 1083.14 61.2361 1084.16C60.691 1085.17 60.4185 1086.73 60.4185 1088.84ZM63.5 1095.05C64.4782 1095.05 65.2399 1094.55 65.7849 1093.53C66.3299 1092.51 66.6024 1090.94 66.6024 1088.84C66.6024 1087.05 66.4277 1085.67 66.0784 1084.68L61.4247 1093.97C61.9278 1094.69 62.6196 1095.05 63.5 1095.05Z" fill="url(#paint33_linear_105_37)" fill-opacity="0.6"/>
<path d="M64.7577 1118.64H67.8392V1119.74H59.8525V1118.64H63.4162V1106.96L60.0202 1108.97L59.4333 1108.04L63.6258 1105.46H64.7577V1118.64Z" fill="url(#paint34_linear_105_37)" fill-opacity="0.6"/>
<path d="M64.7577 1142.39H67.8392V1143.49H59.8525V1142.39H63.4162V1130.71L60.0202 1132.72L59.4333 1131.79L63.6258 1129.21H64.7577V1142.39Z" fill="url(#paint35_linear_105_37)" fill-opacity="0.6"/>
<path d="M63.5 1152.76C64.9953 1152.76 66.1273 1153.39 66.8959 1154.65C67.6785 1155.89 68.0698 1157.71 68.0698 1160.09C68.0698 1162.47 67.6785 1164.3 66.8959 1165.56C66.1273 1166.82 64.9953 1167.45 63.5 1167.45C62.0187 1167.45 60.8867 1166.82 60.1041 1165.56C59.3215 1164.3 58.9302 1162.47 58.9302 1160.09C58.9302 1157.72 59.3215 1155.91 60.1041 1154.65C60.8867 1153.39 62.0187 1152.76 63.5 1152.76ZM60.4185 1160.09C60.4185 1161.78 60.5723 1163.1 60.8797 1164.06L65.5334 1154.85C65.0442 1154.2 64.3664 1153.88 63.5 1153.88C62.5357 1153.88 61.7811 1154.39 61.2361 1155.42C60.691 1156.43 60.4185 1157.99 60.4185 1160.09ZM63.5 1166.31C64.4782 1166.31 65.2399 1165.8 65.7849 1164.79C66.3299 1163.76 66.6024 1162.2 66.6024 1160.09C66.6024 1158.3 66.4277 1156.92 66.0784 1155.93L61.4247 1165.22C61.9278 1165.95 62.6196 1166.31 63.5 1166.31Z" fill="url(#paint36_linear_105_37)" fill-opacity="0.6"/>
<path d="M64.7577 1189.89H67.8392V1190.99H59.8525V1189.89H63.4162V1178.21L60.0202 1180.23L59.4333 1179.29L63.6258 1176.71H64.7577V1189.89Z" fill="url(#paint37_linear_105_37)" fill-opacity="0.6"/>
<path d="M64.7577 1213.64H67.8392V1214.74H59.8525V1213.64H63.4162V1201.96L60.0202 1203.98L59.4333 1203.04L63.6258 1200.47H64.7577V1213.64Z" fill="url(#paint38_linear_105_37)" fill-opacity="0.6"/>
<path d="M63.5 1224.01C64.9953 1224.01 66.1273 1224.64 66.8959 1225.9C67.6785 1227.15 68.0698 1228.96 68.0698 1231.34C68.0698 1233.73 67.6785 1235.55 66.8959 1236.81C66.1273 1238.07 64.9953 1238.7 63.5 1238.7C62.0187 1238.7 60.8867 1238.07 60.1041 1236.81C59.3215 1235.55 58.9302 1233.73 58.9302 1231.34C58.9302 1228.98 59.3215 1227.16 60.1041 1225.9C60.8867 1224.64 62.0187 1224.01 63.5 1224.01ZM60.4185 1231.34C60.4185 1233.03 60.5723 1234.36 60.8797 1235.31L65.5334 1226.11C65.0442 1225.46 64.3664 1225.13 63.5 1225.13C62.5357 1225.13 61.7811 1225.64 61.2361 1226.67C60.691 1227.68 60.4185 1229.24 60.4185 1231.34ZM63.5 1237.56C64.4782 1237.56 65.2399 1237.05 65.7849 1236.04C66.3299 1235.02 66.6024 1233.45 66.6024 1231.34C66.6024 1229.56 66.4277 1228.17 66.0784 1227.19L61.4247 1236.48C61.9278 1237.2 62.6196 1237.56 63.5 1237.56Z" fill="url(#paint39_linear_105_37)" fill-opacity="0.6"/>
<path d="M64.7577 1261.14H67.8392V1262.24H59.8525V1261.14H63.4162V1249.46L60.0202 1251.48L59.4333 1250.54L63.6258 1247.97H64.7577V1261.14Z" fill="url(#paint40_linear_105_37)" fill-opacity="0.6"/>
<path d="M63.5 1271.51C64.9953 1271.51 66.1273 1272.14 66.8959 1273.4C67.6785 1274.65 68.0698 1276.46 68.0698 1278.85C68.0698 1281.23 67.6785 1283.05 66.8959 1284.31C66.1273 1285.57 64.9953 1286.2 63.5 1286.2C62.0187 1286.2 60.8867 1285.57 60.1041 1284.31C59.3215 1283.05 58.9302 1281.23 58.9302 1278.85C58.9302 1276.48 59.3215 1274.66 60.1041 1273.4C60.8867 1272.14 62.0187 1271.51 63.5 1271.51ZM60.4185 1278.85C60.4185 1280.54 60.5723 1281.86 60.8797 1282.82L65.5334 1273.61C65.0442 1272.96 64.3664 1272.63 63.5 1272.63C62.5357 1272.63 61.7811 1273.15 61.2361 1274.17C60.691 1275.18 60.4185 1276.74 60.4185 1278.85ZM63.5 1285.06C64.4782 1285.06 65.2399 1284.55 65.7849 1283.54C66.3299 1282.52 66.6024 1280.95 66.6024 1278.85C66.6024 1277.06 66.4277 1275.67 66.0784 1274.69L61.4247 1283.98C61.9278 1284.7 62.6196 1285.06 63.5 1285.06Z" fill="url(#paint41_linear_105_37)" fill-opacity="0.6"/>
<path d="M102.43 1057.75C103.926 1057.75 105.057 1058.38 105.826 1059.64C106.609 1060.89 107 1062.7 107 1065.09C107 1067.47 106.609 1069.29 105.826 1070.55C105.057 1071.81 103.926 1072.44 102.43 1072.44C100.949 1072.44 99.8169 1071.81 99.0343 1070.55C98.2517 1069.29 97.8604 1067.47 97.8604 1065.09C97.8604 1062.72 98.2517 1060.9 99.0343 1059.64C99.8169 1058.38 100.949 1057.75 102.43 1057.75ZM99.3487 1065.09C99.3487 1066.78 99.5024 1068.1 99.8099 1069.06L104.464 1059.85C103.974 1059.2 103.297 1058.87 102.43 1058.87C101.466 1058.87 100.711 1059.39 100.166 1060.41C99.6212 1061.42 99.3487 1062.98 99.3487 1065.09ZM102.43 1071.3C103.408 1071.3 104.17 1070.8 104.715 1069.78C105.26 1068.76 105.533 1067.19 105.533 1065.09C105.533 1063.3 105.358 1061.91 105.009 1060.93L100.355 1070.22C100.858 1070.94 101.55 1071.3 102.43 1071.3Z" fill="url(#paint42_linear_105_37)" fill-opacity="0.6"/>
<path d="M103.688 1094.89H106.769V1095.99H98.7827V1094.89H102.346V1083.21L98.9504 1085.22L98.3635 1084.29L102.556 1081.71H103.688V1094.89Z" fill="url(#paint43_linear_105_37)" fill-opacity="0.6"/>
<path d="M103.688 1118.64H106.769V1119.74H98.7827V1118.64H102.346V1106.96L98.9504 1108.97L98.3635 1108.04L102.556 1105.46H103.688V1118.64Z" fill="url(#paint44_linear_105_37)" fill-opacity="0.6"/>
<path d="M102.43 1129C103.926 1129 105.057 1129.63 105.826 1130.9C106.609 1132.14 107 1133.96 107 1136.34C107 1138.72 106.609 1140.55 105.826 1141.81C105.057 1143.07 103.926 1143.7 102.43 1143.7C100.949 1143.7 99.8169 1143.07 99.0343 1141.81C98.2517 1140.55 97.8604 1138.72 97.8604 1136.34C97.8604 1133.97 98.2517 1132.16 99.0343 1130.9C99.8169 1129.63 100.949 1129 102.43 1129ZM99.3487 1136.34C99.3487 1138.03 99.5024 1139.35 99.8099 1140.31L104.464 1131.1C103.974 1130.45 103.297 1130.13 102.43 1130.13C101.466 1130.13 100.711 1130.64 100.166 1131.66C99.6212 1132.68 99.3487 1134.23 99.3487 1136.34ZM102.43 1142.55C103.408 1142.55 104.17 1142.05 104.715 1141.04C105.26 1140.01 105.533 1138.45 105.533 1136.34C105.533 1134.55 105.358 1133.17 105.009 1132.18L100.355 1141.47C100.858 1142.19 101.55 1142.55 102.43 1142.55Z" fill="url(#paint45_linear_105_37)" fill-opacity="0.6"/>
<path d="M102.43 1152.76C103.926 1152.76 105.057 1153.39 105.826 1154.65C106.609 1155.89 107 1157.71 107 1160.09C107 1162.47 106.609 1164.3 105.826 1165.56C105.057 1166.82 103.926 1167.45 102.43 1167.45C100.949 1167.45 99.8169 1166.82 99.0343 1165.56C98.2517 1164.3 97.8604 1162.47 97.8604 1160.09C97.8604 1157.72 98.2517 1155.91 99.0343 1154.65C99.8169 1153.39 100.949 1152.76 102.43 1152.76ZM99.3487 1160.09C99.3487 1161.78 99.5024 1163.1 99.8099 1164.06L104.464 1154.85C103.974 1154.2 103.297 1153.88 102.43 1153.88C101.466 1153.88 100.711 1154.39 100.166 1155.42C99.6212 1156.43 99.3487 1157.99 99.3487 1160.09ZM102.43 1166.31C103.408 1166.31 104.17 1165.8 104.715 1164.79C105.26 1163.76 105.533 1162.2 105.533 1160.09C105.533 1158.3 105.358 1156.92 105.009 1155.93L100.355 1165.22C100.858 1165.95 101.55 1166.31 102.43 1166.31Z" fill="url(#paint46_linear_105_37)" fill-opacity="0.6"/>
<g opacity="0.6">
<path d="M1264.93 701C1266.36 701 1267.44 701.605 1268.17 702.815C1268.92 704.011 1269.29 705.753 1269.29 708.04C1269.29 710.327 1268.92 712.075 1268.17 713.285C1267.44 714.495 1266.36 715.1 1264.93 715.1C1263.52 715.1 1262.44 714.495 1261.69 713.285C1260.94 712.075 1260.57 710.327 1260.57 708.04C1260.57 705.767 1260.94 704.025 1261.69 702.815C1262.44 701.605 1263.52 701 1264.93 701ZM1261.99 708.04C1261.99 709.662 1262.14 710.932 1262.43 711.849L1266.87 703.014C1266.4 702.389 1265.76 702.077 1264.93 702.077C1264.01 702.077 1263.29 702.569 1262.77 703.553C1262.25 704.523 1261.99 706.019 1261.99 708.04ZM1264.93 714.003C1265.86 714.003 1266.59 713.518 1267.11 712.547C1267.63 711.564 1267.89 710.061 1267.89 708.04C1267.89 706.325 1267.72 704.995 1267.39 704.051L1262.95 712.966C1263.43 713.658 1264.09 714.003 1264.93 714.003Z" fill="url(#paint47_linear_105_37)"/>
<path d="M1266.13 736.637H1269.07V737.694H1261.45V736.637H1264.85V725.428L1261.61 727.363L1261.05 726.465L1265.05 723.992H1266.13V736.637Z" fill="url(#paint48_linear_105_37)"/>
<path d="M1264.93 746.586C1266.36 746.586 1267.44 747.191 1268.17 748.4C1268.92 749.597 1269.29 751.339 1269.29 753.626C1269.29 755.913 1268.92 757.661 1268.17 758.871C1267.44 760.081 1266.36 760.686 1264.93 760.686C1263.52 760.686 1262.44 760.081 1261.69 758.871C1260.94 757.661 1260.57 755.913 1260.57 753.626C1260.57 751.352 1260.94 749.61 1261.69 748.4C1262.44 747.191 1263.52 746.586 1264.93 746.586ZM1261.99 753.626C1261.99 755.248 1262.14 756.518 1262.43 757.435L1266.87 748.6C1266.4 747.975 1265.76 747.663 1264.93 747.663C1264.01 747.663 1263.29 748.155 1262.77 749.138C1262.25 750.109 1261.99 751.605 1261.99 753.626ZM1264.93 759.589C1265.86 759.589 1266.59 759.104 1267.11 758.133C1267.63 757.149 1267.89 755.647 1267.89 753.626C1267.89 751.911 1267.72 750.581 1267.39 749.637L1262.95 758.552C1263.43 759.243 1264.09 759.589 1264.93 759.589Z" fill="url(#paint49_linear_105_37)"/>
<path d="M1266.13 782.222H1269.07V783.279H1261.45V782.222H1264.85V771.014L1261.61 772.948L1261.05 772.051L1265.05 769.578H1266.13V782.222Z" fill="url(#paint50_linear_105_37)"/>
<path d="M1266.13 805.015H1269.07V806.072H1261.45V805.015H1264.85V793.807L1261.61 795.741L1261.05 794.844L1265.05 792.371H1266.13V805.015Z" fill="url(#paint51_linear_105_37)"/>
<path d="M1264.93 814.964C1266.36 814.964 1267.44 815.569 1268.17 816.779C1268.92 817.976 1269.29 819.717 1269.29 822.004C1269.29 824.291 1268.92 826.039 1268.17 827.249C1267.44 828.459 1266.36 829.064 1264.93 829.064C1263.52 829.064 1262.44 828.459 1261.69 827.249C1260.94 826.039 1260.57 824.291 1260.57 822.004C1260.57 819.731 1260.94 817.989 1261.69 816.779C1262.44 815.569 1263.52 814.964 1264.93 814.964ZM1261.99 822.004C1261.99 823.626 1262.14 824.896 1262.43 825.813L1266.87 816.978C1266.4 816.353 1265.76 816.041 1264.93 816.041C1264.01 816.041 1263.29 816.533 1262.77 817.517C1262.25 818.487 1261.99 819.983 1261.99 822.004ZM1264.93 827.967C1265.86 827.967 1266.59 827.482 1267.11 826.511C1267.63 825.528 1267.89 824.025 1267.89 822.004C1267.89 820.289 1267.72 818.959 1267.39 818.015L1262.95 826.93C1263.43 827.622 1264.09 827.967 1264.93 827.967Z" fill="url(#paint52_linear_105_37)"/>
<path d="M1266.13 850.601H1269.07V851.658H1261.45V850.601H1264.85V839.392L1261.61 841.327L1261.05 840.429L1265.05 837.956H1266.13V850.601Z" fill="url(#paint53_linear_105_37)"/>
<path d="M1264.93 860.55C1266.36 860.55 1267.44 861.155 1268.17 862.365C1268.92 863.561 1269.29 865.303 1269.29 867.59C1269.29 869.877 1268.92 871.625 1268.17 872.835C1267.44 874.045 1266.36 874.65 1264.93 874.65C1263.52 874.65 1262.44 874.045 1261.69 872.835C1260.94 871.625 1260.57 869.877 1260.57 867.59C1260.57 865.316 1260.94 863.574 1261.69 862.365C1262.44 861.155 1263.52 860.55 1264.93 860.55ZM1261.99 867.59C1261.99 869.212 1262.14 870.482 1262.43 871.399L1266.87 862.564C1266.4 861.939 1265.76 861.627 1264.93 861.627C1264.01 861.627 1263.29 862.119 1262.77 863.102C1262.25 864.073 1261.99 865.569 1261.99 867.59ZM1264.93 873.553C1265.86 873.553 1266.59 873.068 1267.11 872.097C1267.63 871.113 1267.89 869.611 1267.89 867.59C1267.89 865.875 1267.72 864.545 1267.39 863.601L1262.95 872.516C1263.43 873.207 1264.09 873.553 1264.93 873.553Z" fill="url(#paint54_linear_105_37)"/>
<path d="M1264.93 883.342C1266.36 883.342 1267.44 883.947 1268.17 885.157C1268.92 886.354 1269.29 888.096 1269.29 890.383C1269.29 892.669 1268.92 894.418 1268.17 895.628C1267.44 896.838 1266.36 897.443 1264.93 897.443C1263.52 897.443 1262.44 896.838 1261.69 895.628C1260.94 894.418 1260.57 892.669 1260.57 890.383C1260.57 888.109 1260.94 886.367 1261.69 885.157C1262.44 883.947 1263.52 883.342 1264.93 883.342ZM1261.99 890.383C1261.99 892.005 1262.14 893.274 1262.43 894.192L1266.87 885.357C1266.4 884.732 1265.76 884.419 1264.93 884.419C1264.01 884.419 1263.29 884.911 1262.77 885.895C1262.25 886.866 1261.99 888.362 1261.99 890.383ZM1264.93 896.346C1265.86 896.346 1266.59 895.86 1267.11 894.89C1267.63 893.906 1267.89 892.404 1267.89 890.383C1267.89 888.667 1267.72 887.338 1267.39 886.394L1262.95 895.309C1263.43 896 1264.09 896.346 1264.93 896.346Z" fill="url(#paint55_linear_105_37)"/>
<path d="M1266.13 918.979H1269.07V920.036H1261.45V918.979H1264.85V907.771L1261.61 909.705L1261.05 908.808L1265.05 906.335H1266.13V918.979Z" fill="url(#paint56_linear_105_37)"/>
<path d="M1264.93 928.928C1266.36 928.928 1267.44 929.533 1268.17 930.743C1268.92 931.94 1269.29 933.681 1269.29 935.968C1269.29 938.255 1268.92 940.003 1268.17 941.213C1267.44 942.423 1266.36 943.028 1264.93 943.028C1263.52 943.028 1262.44 942.423 1261.69 941.213C1260.94 940.003 1260.57 938.255 1260.57 935.968C1260.57 933.695 1260.94 931.953 1261.69 930.743C1262.44 929.533 1263.52 928.928 1264.93 928.928ZM1261.99 935.968C1261.99 937.59 1262.14 938.86 1262.43 939.777L1266.87 930.942C1266.4 930.317 1265.76 930.005 1264.93 930.005C1264.01 930.005 1263.29 930.497 1262.77 931.481C1262.25 932.451 1261.99 933.947 1261.99 935.968ZM1264.93 941.931C1265.86 941.931 1266.59 941.446 1267.11 940.475C1267.63 939.492 1267.89 937.989 1267.89 935.968C1267.89 934.253 1267.72 932.923 1267.39 931.979L1262.95 940.894C1263.43 941.586 1264.09 941.931 1264.93 941.931Z" fill="url(#paint57_linear_105_37)"/>
<path d="M1266.13 964.565H1269.07V965.622H1261.45V964.565H1264.85V953.356L1261.61 955.291L1261.05 954.393L1265.05 951.92H1266.13V964.565Z" fill="url(#paint58_linear_105_37)"/>
<path d="M1266.13 987.357H1269.07V988.414H1261.45V987.357H1264.85V976.149L1261.61 978.084L1261.05 977.186L1265.05 974.713H1266.13V987.357Z" fill="url(#paint59_linear_105_37)"/>
<path d="M1302.07 746.586C1303.5 746.586 1304.58 747.191 1305.31 748.4C1306.06 749.597 1306.43 751.339 1306.43 753.626C1306.43 755.913 1306.06 757.661 1305.31 758.871C1304.58 760.081 1303.5 760.686 1302.07 760.686C1300.66 760.686 1299.58 760.081 1298.83 758.871C1298.08 757.661 1297.71 755.913 1297.71 753.626C1297.71 751.352 1298.08 749.61 1298.83 748.4C1299.58 747.191 1300.66 746.586 1302.07 746.586ZM1299.13 753.626C1299.13 755.248 1299.28 756.518 1299.57 757.435L1304.01 748.6C1303.54 747.975 1302.9 747.663 1302.07 747.663C1301.15 747.663 1300.43 748.155 1299.91 749.138C1299.39 750.109 1299.13 751.605 1299.13 753.626ZM1302.07 759.589C1303 759.589 1303.73 759.104 1304.25 758.133C1304.77 757.149 1305.03 755.647 1305.03 753.626C1305.03 751.911 1304.86 750.581 1304.53 749.637L1300.09 758.552C1300.57 759.243 1301.23 759.589 1302.07 759.589Z" fill="url(#paint60_linear_105_37)"/>
<path d="M1303.27 782.222H1306.21V783.279H1298.59V782.222H1301.99V771.014L1298.75 772.948L1298.19 772.051L1302.19 769.578H1303.27V782.222Z" fill="url(#paint61_linear_105_37)"/>
<path d="M1302.07 792.171C1303.5 792.171 1304.58 792.776 1305.31 793.986C1306.06 795.183 1306.43 796.924 1306.43 799.211C1306.43 801.498 1306.06 803.247 1305.31 804.457C1304.58 805.666 1303.5 806.271 1302.07 806.271C1300.66 806.271 1299.58 805.666 1298.83 804.457C1298.08 803.247 1297.71 801.498 1297.71 799.211C1297.71 796.938 1298.08 795.196 1298.83 793.986C1299.58 792.776 1300.66 792.171 1302.07 792.171ZM1299.13 799.211C1299.13 800.833 1299.28 802.103 1299.57 803.021L1304.01 794.186C1303.54 793.561 1302.9 793.248 1302.07 793.248C1301.15 793.248 1300.43 793.74 1299.91 794.724C1299.39 795.695 1299.13 797.19 1299.13 799.211ZM1302.07 805.174C1303 805.174 1303.73 804.689 1304.25 803.719C1304.77 802.735 1305.03 801.232 1305.03 799.211C1305.03 797.496 1304.86 796.167 1304.53 795.223L1300.09 804.137C1300.57 804.829 1301.23 805.174 1302.07 805.174Z" fill="url(#paint62_linear_105_37)"/>
<path d="M1302.07 814.964C1303.5 814.964 1304.58 815.569 1305.31 816.779C1306.06 817.976 1306.43 819.717 1306.43 822.004C1306.43 824.291 1306.06 826.039 1305.31 827.249C1304.58 828.459 1303.5 829.064 1302.07 829.064C1300.66 829.064 1299.58 828.459 1298.83 827.249C1298.08 826.039 1297.71 824.291 1297.71 822.004C1297.71 819.731 1298.08 817.989 1298.83 816.779C1299.58 815.569 1300.66 814.964 1302.07 814.964ZM1299.13 822.004C1299.13 823.626 1299.28 824.896 1299.57 825.813L1304.01 816.978C1303.54 816.353 1302.9 816.041 1302.07 816.041C1301.15 816.041 1300.43 816.533 1299.91 817.517C1299.39 818.487 1299.13 819.983 1299.13 822.004ZM1302.07 827.967C1303 827.967 1303.73 827.482 1304.25 826.511C1304.77 825.528 1305.03 824.025 1305.03 822.004C1305.03 820.289 1304.86 818.959 1304.53 818.015L1300.09 826.93C1300.57 827.622 1301.23 827.967 1302.07 827.967Z" fill="url(#paint63_linear_105_37)"/>
<path d="M1303.27 850.601H1306.21V851.658H1298.59V850.601H1301.99V839.392L1298.75 841.327L1298.19 840.429L1302.19 837.956H1303.27V850.601Z" fill="url(#paint64_linear_105_37)"/>
<path d="M1302.07 860.55C1303.5 860.55 1304.58 861.155 1305.31 862.365C1306.06 863.561 1306.43 865.303 1306.43 867.59C1306.43 869.877 1306.06 871.625 1305.31 872.835C1304.58 874.045 1303.5 874.65 1302.07 874.65C1300.66 874.65 1299.58 874.045 1298.83 872.835C1298.08 871.625 1297.71 869.877 1297.71 867.59C1297.71 865.316 1298.08 863.574 1298.83 862.365C1299.58 861.155 1300.66 860.55 1302.07 860.55ZM1299.13 867.59C1299.13 869.212 1299.28 870.482 1299.57 871.399L1304.01 862.564C1303.54 861.939 1302.9 861.627 1302.07 861.627C1301.15 861.627 1300.43 862.119 1299.91 863.102C1299.39 864.073 1299.13 865.569 1299.13 867.59ZM1302.07 873.553C1303 873.553 1303.73 873.068 1304.25 872.097C1304.77 871.113 1305.03 869.611 1305.03 867.59C1305.03 865.875 1304.86 864.545 1304.53 863.601L1300.09 872.516C1300.57 873.207 1301.23 873.553 1302.07 873.553Z" fill="url(#paint65_linear_105_37)"/>
<path d="M1303.27 896.186H1306.21V897.243H1298.59V896.186H1301.99V884.978L1298.75 886.912L1298.19 886.015L1302.19 883.542H1303.27V896.186Z" fill="url(#paint66_linear_105_37)"/>
<path d="M1302.07 906.135C1303.5 906.135 1304.58 906.74 1305.31 907.95C1306.06 909.147 1306.43 910.888 1306.43 913.175C1306.43 915.462 1306.06 917.211 1305.31 918.421C1304.58 919.63 1303.5 920.235 1302.07 920.235C1300.66 920.235 1299.58 919.63 1298.83 918.421C1298.08 917.211 1297.71 915.462 1297.71 913.175C1297.71 910.902 1298.08 909.16 1298.83 907.95C1299.58 906.74 1300.66 906.135 1302.07 906.135ZM1299.13 913.175C1299.13 914.797 1299.28 916.067 1299.57 916.985L1304.01 908.15C1303.54 907.525 1302.9 907.212 1302.07 907.212C1301.15 907.212 1300.43 907.704 1299.91 908.688C1299.39 909.659 1299.13 911.154 1299.13 913.175ZM1302.07 919.139C1303 919.139 1303.73 918.653 1304.25 917.683C1304.77 916.699 1305.03 915.196 1305.03 913.175C1305.03 911.46 1304.86 910.131 1304.53 909.187L1300.09 918.101C1300.57 918.793 1301.23 919.139 1302.07 919.139Z" fill="url(#paint67_linear_105_37)"/>
<path d="M1302.07 928.928C1303.5 928.928 1304.58 929.533 1305.31 930.743C1306.06 931.94 1306.43 933.681 1306.43 935.968C1306.43 938.255 1306.06 940.003 1305.31 941.213C1304.58 942.423 1303.5 943.028 1302.07 943.028C1300.66 943.028 1299.58 942.423 1298.83 941.213C1298.08 940.003 1297.71 938.255 1297.71 935.968C1297.71 933.695 1298.08 931.953 1298.83 930.743C1299.58 929.533 1300.66 928.928 1302.07 928.928ZM1299.13 935.968C1299.13 937.59 1299.28 938.86 1299.57 939.777L1304.01 930.942C1303.54 930.317 1302.9 930.005 1302.07 930.005C1301.15 930.005 1300.43 930.497 1299.91 931.481C1299.39 932.451 1299.13 933.947 1299.13 935.968ZM1302.07 941.931C1303 941.931 1303.73 941.446 1304.25 940.475C1304.77 939.492 1305.03 937.989 1305.03 935.968C1305.03 934.253 1304.86 932.923 1304.53 931.979L1300.09 940.894C1300.57 941.586 1301.23 941.931 1302.07 941.931Z" fill="url(#paint68_linear_105_37)"/>
<path d="M1303.27 964.565H1306.21V965.622H1298.59V964.565H1301.99V953.356L1298.75 955.291L1298.19 954.393L1302.19 951.92H1303.27V964.565Z" fill="url(#paint69_linear_105_37)"/>
<path d="M1302.07 974.514C1303.5 974.514 1304.58 975.119 1305.31 976.329C1306.06 977.525 1306.43 979.267 1306.43 981.554C1306.43 983.841 1306.06 985.589 1305.31 986.799C1304.58 988.009 1303.5 988.614 1302.07 988.614C1300.66 988.614 1299.58 988.009 1298.83 986.799C1298.08 985.589 1297.71 983.841 1297.71 981.554C1297.71 979.28 1298.08 977.538 1298.83 976.329C1299.58 975.119 1300.66 974.514 1302.07 974.514ZM1299.13 981.554C1299.13 983.176 1299.28 984.446 1299.57 985.363L1304.01 976.528C1303.54 975.903 1302.9 975.591 1302.07 975.591C1301.15 975.591 1300.43 976.083 1299.91 977.066C1299.39 978.037 1299.13 979.533 1299.13 981.554ZM1302.07 987.517C1303 987.517 1303.73 987.032 1304.25 986.061C1304.77 985.077 1305.03 983.575 1305.03 981.554C1305.03 979.839 1304.86 978.509 1304.53 977.565L1300.09 986.48C1300.57 987.171 1301.23 987.517 1302.07 987.517Z" fill="url(#paint70_linear_105_37)"/>
<path d="M1303.27 1010.15H1306.21V1011.21H1298.59V1010.15H1301.99V998.942L1298.75 1000.88L1298.19 999.979L1302.19 997.506H1303.27V1010.15Z" fill="url(#paint71_linear_105_37)"/>
<path d="M1303.27 1032.94H1306.21V1034H1298.59V1032.94H1301.99V1021.73L1298.75 1023.67L1298.19 1022.77L1302.19 1020.3H1303.27V1032.94Z" fill="url(#paint72_linear_105_37)"/>
<path d="M1246.36 769.378C1247.79 769.378 1248.87 769.983 1249.6 771.193C1250.35 772.39 1250.72 774.132 1250.72 776.419C1250.72 778.705 1250.35 780.454 1249.6 781.664C1248.87 782.874 1247.79 783.479 1246.36 783.479C1244.95 783.479 1243.87 782.874 1243.12 781.664C1242.37 780.454 1242 778.705 1242 776.419C1242 774.145 1242.37 772.403 1243.12 771.193C1243.87 769.983 1244.95 769.378 1246.36 769.378ZM1243.42 776.419C1243.42 778.041 1243.57 779.31 1243.86 780.228L1248.3 771.393C1247.83 770.768 1247.19 770.455 1246.36 770.455C1245.44 770.455 1244.72 770.947 1244.2 771.931C1243.68 772.902 1243.42 774.398 1243.42 776.419ZM1246.36 782.382C1247.29 782.382 1248.02 781.896 1248.54 780.926C1249.06 779.942 1249.32 778.439 1249.32 776.419C1249.32 774.703 1249.15 773.374 1248.82 772.43L1244.38 781.345C1244.86 782.036 1245.52 782.382 1246.36 782.382Z" fill="url(#paint73_linear_105_37)"/>
<path d="M1246.36 792.171C1247.79 792.171 1248.87 792.776 1249.6 793.986C1250.35 795.183 1250.72 796.924 1250.72 799.211C1250.72 801.498 1250.35 803.247 1249.6 804.457C1248.87 805.666 1247.79 806.271 1246.36 806.271C1244.95 806.271 1243.87 805.666 1243.12 804.457C1242.37 803.247 1242 801.498 1242 799.211C1242 796.938 1242.37 795.196 1243.12 793.986C1243.87 792.776 1244.95 792.171 1246.36 792.171ZM1243.42 799.211C1243.42 800.833 1243.57 802.103 1243.86 803.021L1248.3 794.186C1247.83 793.561 1247.19 793.248 1246.36 793.248C1245.44 793.248 1244.72 793.74 1244.2 794.724C1243.68 795.695 1243.42 797.19 1243.42 799.211ZM1246.36 805.174C1247.29 805.174 1248.02 804.689 1248.54 803.719C1249.06 802.735 1249.32 801.232 1249.32 799.211C1249.32 797.496 1249.15 796.167 1248.82 795.223L1244.38 804.137C1244.86 804.829 1245.52 805.174 1246.36 805.174Z" fill="url(#paint74_linear_105_37)"/>
<path d="M1247.56 827.808H1250.5V828.865H1242.88V827.808H1246.28V816.599L1243.04 818.534L1242.48 817.636L1246.48 815.163H1247.56V827.808Z" fill="url(#paint75_linear_105_37)"/>
<path d="M1246.36 837.757C1247.79 837.757 1248.87 838.362 1249.6 839.572C1250.35 840.768 1250.72 842.51 1250.72 844.797C1250.72 847.084 1250.35 848.832 1249.6 850.042C1248.87 851.252 1247.79 851.857 1246.36 851.857C1244.95 851.857 1243.87 851.252 1243.12 850.042C1242.37 848.832 1242 847.084 1242 844.797C1242 842.523 1242.37 840.782 1243.12 839.572C1243.87 838.362 1244.95 837.757 1246.36 837.757ZM1243.42 844.797C1243.42 846.419 1243.57 847.689 1243.86 848.606L1248.3 839.771C1247.83 839.146 1247.19 838.834 1246.36 838.834C1245.44 838.834 1244.72 839.326 1244.2 840.31C1243.68 841.28 1243.42 842.776 1243.42 844.797ZM1246.36 850.76C1247.29 850.76 1248.02 850.275 1248.54 849.304C1249.06 848.32 1249.32 846.818 1249.32 844.797C1249.32 843.082 1249.15 841.752 1248.82 840.808L1244.38 849.723C1244.86 850.414 1245.52 850.76 1246.36 850.76Z" fill="url(#paint76_linear_105_37)"/>
<path d="M1247.56 873.393H1250.5V874.45H1242.88V873.393H1246.28V862.185L1243.04 864.12L1242.48 863.222L1246.48 860.749H1247.56V873.393Z" fill="url(#paint77_linear_105_37)"/>
<path d="M1247.56 896.186H1250.5V897.243H1242.88V896.186H1246.28V884.978L1243.04 886.912L1242.48 886.015L1246.48 883.542H1247.56V896.186Z" fill="url(#paint78_linear_105_37)"/>
<path d="M1284.7 736.637H1287.64V737.694H1280.02V736.637H1283.42V725.428L1280.18 727.363L1279.62 726.465L1283.62 723.992H1284.7V736.637Z" fill="url(#paint79_linear_105_37)"/>
<path d="M1283.5 746.586C1284.93 746.586 1286.01 747.191 1286.74 748.4C1287.49 749.597 1287.86 751.339 1287.86 753.626C1287.86 755.913 1287.49 757.661 1286.74 758.871C1286.01 760.081 1284.93 760.686 1283.5 760.686C1282.09 760.686 1281.01 760.081 1280.26 758.871C1279.51 757.661 1279.14 755.913 1279.14 753.626C1279.14 751.352 1279.51 749.61 1280.26 748.4C1281.01 747.191 1282.09 746.586 1283.5 746.586ZM1280.56 753.626C1280.56 755.248 1280.71 756.518 1281 757.435L1285.44 748.6C1284.97 747.975 1284.33 747.663 1283.5 747.663C1282.58 747.663 1281.86 748.155 1281.34 749.138C1280.82 750.109 1280.56 751.605 1280.56 753.626ZM1283.5 759.589C1284.43 759.589 1285.16 759.104 1285.68 758.133C1286.2 757.149 1286.46 755.647 1286.46 753.626C1286.46 751.911 1286.29 750.581 1285.96 749.637L1281.52 758.552C1282 759.243 1282.66 759.589 1283.5 759.589Z" fill="url(#paint80_linear_105_37)"/>
<path d="M1284.7 782.222H1287.64V783.279H1280.02V782.222H1283.42V771.014L1280.18 772.948L1279.62 772.051L1283.62 769.578H1284.7V782.222Z" fill="url(#paint81_linear_105_37)"/>
<path d="M1284.7 805.015H1287.64V806.072H1280.02V805.015H1283.42V793.807L1280.18 795.741L1279.62 794.844L1283.62 792.371H1284.7V805.015Z" fill="url(#paint82_linear_105_37)"/>
<path d="M1283.5 814.964C1284.93 814.964 1286.01 815.569 1286.74 816.779C1287.49 817.976 1287.86 819.717 1287.86 822.004C1287.86 824.291 1287.49 826.039 1286.74 827.249C1286.01 828.459 1284.93 829.064 1283.5 829.064C1282.09 829.064 1281.01 828.459 1280.26 827.249C1279.51 826.039 1279.14 824.291 1279.14 822.004C1279.14 819.731 1279.51 817.989 1280.26 816.779C1281.01 815.569 1282.09 814.964 1283.5 814.964ZM1280.56 822.004C1280.56 823.626 1280.71 824.896 1281 825.813L1285.44 816.978C1284.97 816.353 1284.33 816.041 1283.5 816.041C1282.58 816.041 1281.86 816.533 1281.34 817.517C1280.82 818.487 1280.56 819.983 1280.56 822.004ZM1283.5 827.967C1284.43 827.967 1285.16 827.482 1285.68 826.511C1286.2 825.528 1286.46 824.025 1286.46 822.004C1286.46 820.289 1286.29 818.959 1285.96 818.015L1281.52 826.93C1282 827.622 1282.66 827.967 1283.5 827.967Z" fill="url(#paint83_linear_105_37)"/>
<path d="M1284.7 850.601H1287.64V851.658H1280.02V850.601H1283.42V839.392L1280.18 841.327L1279.62 840.429L1283.62 837.956H1284.7V850.601Z" fill="url(#paint84_linear_105_37)"/>
<path d="M1284.7 873.393H1287.64V874.45H1280.02V873.393H1283.42V862.185L1280.18 864.12L1279.62 863.222L1283.62 860.749H1284.7V873.393Z" fill="url(#paint85_linear_105_37)"/>
<path d="M1283.5 883.342C1284.93 883.342 1286.01 883.947 1286.74 885.157C1287.49 886.354 1287.86 888.096 1287.86 890.383C1287.86 892.669 1287.49 894.418 1286.74 895.628C1286.01 896.838 1284.93 897.443 1283.5 897.443C1282.09 897.443 1281.01 896.838 1280.26 895.628C1279.51 894.418 1279.14 892.669 1279.14 890.383C1279.14 888.109 1279.51 886.367 1280.26 885.157C1281.01 883.947 1282.09 883.342 1283.5 883.342ZM1280.56 890.383C1280.56 892.005 1280.71 893.274 1281 894.192L1285.44 885.357C1284.97 884.732 1284.33 884.419 1283.5 884.419C1282.58 884.419 1281.86 884.911 1281.34 885.895C1280.82 886.866 1280.56 888.362 1280.56 890.383ZM1283.5 896.346C1284.43 896.346 1285.16 895.86 1285.68 894.89C1286.2 893.906 1286.46 892.404 1286.46 890.383C1286.46 888.667 1286.29 887.338 1285.96 886.394L1281.52 895.309C1282 896 1282.66 896.346 1283.5 896.346Z" fill="url(#paint86_linear_105_37)"/>
<path d="M1284.7 918.979H1287.64V920.036H1280.02V918.979H1283.42V907.771L1280.18 909.705L1279.62 908.808L1283.62 906.335H1284.7V918.979Z" fill="url(#paint87_linear_105_37)"/>
<path d="M1283.5 928.928C1284.93 928.928 1286.01 929.533 1286.74 930.743C1287.49 931.94 1287.86 933.681 1287.86 935.968C1287.86 938.255 1287.49 940.003 1286.74 941.213C1286.01 942.423 1284.93 943.028 1283.5 943.028C1282.09 943.028 1281.01 942.423 1280.26 941.213C1279.51 940.003 1279.14 938.255 1279.14 935.968C1279.14 933.695 1279.51 931.953 1280.26 930.743C1281.01 929.533 1282.09 928.928 1283.5 928.928ZM1280.56 935.968C1280.56 937.59 1280.71 938.86 1281 939.777L1285.44 930.942C1284.97 930.317 1284.33 930.005 1283.5 930.005C1282.58 930.005 1281.86 930.497 1281.34 931.481C1280.82 932.451 1280.56 933.947 1280.56 935.968ZM1283.5 941.931C1284.43 941.931 1285.16 941.446 1285.68 940.475C1286.2 939.492 1286.46 937.989 1286.46 935.968C1286.46 934.253 1286.29 932.923 1285.96 931.979L1281.52 940.894C1282 941.586 1282.66 941.931 1283.5 941.931Z" fill="url(#paint88_linear_105_37)"/>
<path d="M1320.64 723.793C1322.07 723.793 1323.15 724.398 1323.88 725.608C1324.63 726.804 1325 728.546 1325 730.833C1325 733.12 1324.63 734.868 1323.88 736.078C1323.15 737.288 1322.07 737.893 1320.64 737.893C1319.23 737.893 1318.15 737.288 1317.4 736.078C1316.65 734.868 1316.28 733.12 1316.28 730.833C1316.28 728.559 1316.65 726.818 1317.4 725.608C1318.15 724.398 1319.23 723.793 1320.64 723.793ZM1317.7 730.833C1317.7 732.455 1317.85 733.725 1318.14 734.642L1322.58 725.807C1322.11 725.182 1321.47 724.87 1320.64 724.87C1319.72 724.87 1319 725.362 1318.48 726.346C1317.96 727.316 1317.7 728.812 1317.7 730.833ZM1320.64 736.796C1321.57 736.796 1322.3 736.311 1322.82 735.34C1323.34 734.356 1323.6 732.854 1323.6 730.833C1323.6 729.118 1323.43 727.788 1323.1 726.844L1318.66 735.759C1319.14 736.45 1319.8 736.796 1320.64 736.796Z" fill="url(#paint89_linear_105_37)"/>
<path d="M1321.84 759.429H1324.78V760.486H1317.16V759.429H1320.56V748.221L1317.32 750.156L1316.76 749.258L1320.76 746.785H1321.84V759.429Z" fill="url(#paint90_linear_105_37)"/>
<path d="M1321.84 782.222H1324.78V783.279H1317.16V782.222H1320.56V771.014L1317.32 772.948L1316.76 772.051L1320.76 769.578H1321.84V782.222Z" fill="url(#paint91_linear_105_37)"/>
<path d="M1320.64 792.171C1322.07 792.171 1323.15 792.776 1323.88 793.986C1324.63 795.183 1325 796.924 1325 799.211C1325 801.498 1324.63 803.247 1323.88 804.457C1323.15 805.666 1322.07 806.271 1320.64 806.271C1319.23 806.271 1318.15 805.666 1317.4 804.457C1316.65 803.247 1316.28 801.498 1316.28 799.211C1316.28 796.938 1316.65 795.196 1317.4 793.986C1318.15 792.776 1319.23 792.171 1320.64 792.171ZM1317.7 799.211C1317.7 800.833 1317.85 802.103 1318.14 803.021L1322.58 794.186C1322.11 793.561 1321.47 793.248 1320.64 793.248C1319.72 793.248 1319 793.74 1318.48 794.724C1317.96 795.695 1317.7 797.19 1317.7 799.211ZM1320.64 805.174C1321.57 805.174 1322.3 804.689 1322.82 803.719C1323.34 802.735 1323.6 801.232 1323.6 799.211C1323.6 797.496 1323.43 796.167 1323.1 795.223L1318.66 804.137C1319.14 804.829 1319.8 805.174 1320.64 805.174Z" fill="url(#paint92_linear_105_37)"/>
<path d="M1320.64 814.964C1322.07 814.964 1323.15 815.569 1323.88 816.779C1324.63 817.976 1325 819.717 1325 822.004C1325 824.291 1324.63 826.039 1323.88 827.249C1323.15 828.459 1322.07 829.064 1320.64 829.064C1319.23 829.064 1318.15 828.459 1317.4 827.249C1316.65 826.039 1316.28 824.291 1316.28 822.004C1316.28 819.731 1316.65 817.989 1317.4 816.779C1318.15 815.569 1319.23 814.964 1320.64 814.964ZM1317.7 822.004C1317.7 823.626 1317.85 824.896 1318.14 825.813L1322.58 816.978C1322.11 816.353 1321.47 816.041 1320.64 816.041C1319.72 816.041 1319 816.533 1318.48 817.517C1317.96 818.487 1317.7 819.983 1317.7 822.004ZM1320.64 827.967C1321.57 827.967 1322.3 827.482 1322.82 826.511C1323.34 825.528 1323.6 824.025 1323.6 822.004C1323.6 820.289 1323.43 818.959 1323.1 818.015L1318.66 826.93C1319.14 827.622 1319.8 827.967 1320.64 827.967Z" fill="url(#paint93_linear_105_37)"/>
</g>
<defs>
<filter id="filter0_f_105_37" x="-380.19" y="0.809998" width="2141.38" height="1500.38" filterUnits="userSpaceOnUse" color-interpolation-filters="sRGB">
<feFlood flood-opacity="0" result="BackgroundImageFix"/>
<feBlend mode="normal" in="SourceGraphic" in2="BackgroundImageFix" result="shape"/>
<feGaussianBlur stdDeviation="200.095" result="effect1_foregroundBlur_105_37"/>
</filter>
<linearGradient id="paint0_linear_105_37" x1="63.5" y1="1034" x2="63.5" y2="1345.38" gradientUnits="userSpaceOnUse">
<stop stop-color="#F7DD43"/>
<stop offset="1" stop-color="#F7DD43" stop-opacity="0"/>
</linearGradient>
<linearGradient id="paint1_linear_105_37" x1="63.5" y1="1034" x2="63.5" y2="1345.38" gradientUnits="userSpaceOnUse">
<stop stop-color="#F7DD43"/>
<stop offset="1" stop-color="#F7DD43" stop-opacity="0"/>
</linearGradient>
<linearGradient id="paint2_linear_105_37" x1="63.5" y1="1034" x2="63.5" y2="1345.38" gradientUnits="userSpaceOnUse">
<stop stop-color="#F7DD43"/>
<stop offset="1" stop-color="#F7DD43" stop-opacity="0"/>
</linearGradient>
<linearGradient id="paint3_linear_105_37" x1="63.5" y1="1034" x2="63.5" y2="1345.38" gradientUnits="userSpaceOnUse">
<stop stop-color="#F7DD43"/>
<stop offset="1" stop-color="#F7DD43" stop-opacity="0"/>
</linearGradient>
<linearGradient id="paint4_linear_105_37" x1="63.5" y1="1034" x2="63.5" y2="1345.38" gradientUnits="userSpaceOnUse">
<stop stop-color="#F7DD43"/>
<stop offset="1" stop-color="#F7DD43" stop-opacity="0"/>
</linearGradient>
<linearGradient id="paint5_linear_105_37" x1="63.5" y1="1034" x2="63.5" y2="1345.38" gradientUnits="userSpaceOnUse">
<stop stop-color="#F7DD43"/>
<stop offset="1" stop-color="#F7DD43" stop-opacity="0"/>
</linearGradient>
<linearGradient id="paint6_linear_105_37" x1="63.5" y1="1034" x2="63.5" y2="1345.38" gradientUnits="userSpaceOnUse">
<stop stop-color="#F7DD43"/>
<stop offset="1" stop-color="#F7DD43" stop-opacity="0"/>
</linearGradient>
<linearGradient id="paint7_linear_105_37" x1="63.5" y1="1034" x2="63.5" y2="1345.38" gradientUnits="userSpaceOnUse">
<stop stop-color="#F7DD43"/>
<stop offset="1" stop-color="#F7DD43" stop-opacity="0"/>
</linearGradient>
<linearGradient id="paint8_linear_105_37" x1="63.5" y1="1034" x2="63.5" y2="1345.38" gradientUnits="userSpaceOnUse">
<stop stop-color="#F7DD43"/>
<stop offset="1" stop-color="#F7DD43" stop-opacity="0"/>
</linearGradient>
<linearGradient id="paint9_linear_105_37" x1="63.5" y1="1034" x2="63.5" y2="1345.38" gradientUnits="userSpaceOnUse">
<stop stop-color="#F7DD43"/>
<stop offset="1" stop-color="#F7DD43" stop-opacity="0"/>
</linearGradient>
<linearGradient id="paint10_linear_105_37" x1="63.5" y1="1034" x2="63.5" y2="1345.38" gradientUnits="userSpaceOnUse">
<stop stop-color="#F7DD43"/>
<stop offset="1" stop-color="#F7DD43" stop-opacity="0"/>
</linearGradient>
<linearGradient id="paint11_linear_105_37" x1="63.5" y1="1034" x2="63.5" y2="1345.38" gradientUnits="userSpaceOnUse">
<stop stop-color="#F7DD43"/>
<stop offset="1" stop-color="#F7DD43" stop-opacity="0"/>
</linearGradient>
<linearGradient id="paint12_linear_105_37" x1="63.5" y1="1034" x2="63.5" y2="1345.38" gradientUnits="userSpaceOnUse">
<stop stop-color="#F7DD43"/>
<stop offset="1" stop-color="#F7DD43" stop-opacity="0"/>
</linearGradient>
<linearGradient id="paint13_linear_105_37" x1="63.5" y1="1034" x2="63.5" y2="1345.38" gradientUnits="userSpaceOnUse">
<stop stop-color="#F7DD43"/>
<stop offset="1" stop-color="#F7DD43" stop-opacity="0"/>
</linearGradient>
<linearGradient id="paint14_linear_105_37" x1="63.5" y1="1034" x2="63.5" y2="1345.38" gradientUnits="userSpaceOnUse">
<stop stop-color="#F7DD43"/>
<stop offset="1" stop-color="#F7DD43" stop-opacity="0"/>
</linearGradient>
<linearGradient id="paint15_linear_105_37" x1="63.5" y1="1034" x2="63.5" y2="1345.38" gradientUnits="userSpaceOnUse">
<stop stop-color="#F7DD43"/>
<stop offset="1" stop-color="#F7DD43" stop-opacity="0"/>
</linearGradient>
<linearGradient id="paint16_linear_105_37" x1="63.5" y1="1034" x2="63.5" y2="1345.38" gradientUnits="userSpaceOnUse">
<stop stop-color="#F7DD43"/>
<stop offset="1" stop-color="#F7DD43" stop-opacity="0"/>
</linearGradient>
<linearGradient id="paint17_linear_105_37" x1="63.5" y1="1034" x2="63.5" y2="1345.38" gradientUnits="userSpaceOnUse">
<stop stop-color="#F7DD43"/>
<stop offset="1" stop-color="#F7DD43" stop-opacity="0"/>
</linearGradient>
<linearGradient id="paint18_linear_105_37" x1="63.5" y1="1034" x2="63.5" y2="1345.38" gradientUnits="userSpaceOnUse">
<stop stop-color="#F7DD43"/>
<stop offset="1" stop-color="#F7DD43" stop-opacity="0"/>
</linearGradient>
<linearGradient id="paint19_linear_105_37" x1="63.5" y1="1034" x2="63.5" y2="1345.38" gradientUnits="userSpaceOnUse">
<stop stop-color="#F7DD43"/>
<stop offset="1" stop-color="#F7DD43" stop-opacity="0"/>
</linearGradient>
<linearGradient id="paint20_linear_105_37" x1="63.5" y1="1034" x2="63.5" y2="1345.38" gradientUnits="userSpaceOnUse">
<stop stop-color="#F7DD43"/>
<stop offset="1" stop-color="#F7DD43" stop-opacity="0"/>
</linearGradient>
<linearGradient id="paint21_linear_105_37" x1="63.5" y1="1034" x2="63.5" y2="1345.38" gradientUnits="userSpaceOnUse">
<stop stop-color="#F7DD43"/>
<stop offset="1" stop-color="#F7DD43" stop-opacity="0"/>
</linearGradient>
<linearGradient id="paint22_linear_105_37" x1="63.5" y1="1034" x2="63.5" y2="1345.38" gradientUnits="userSpaceOnUse">
<stop stop-color="#F7DD43"/>
<stop offset="1" stop-color="#F7DD43" stop-opacity="0"/>
</linearGradient>
<linearGradient id="paint23_linear_105_37" x1="63.5" y1="1034" x2="63.5" y2="1345.38" gradientUnits="userSpaceOnUse">
<stop stop-color="#F7DD43"/>
<stop offset="1" stop-color="#F7DD43" stop-opacity="0"/>
</linearGradient>
<linearGradient id="paint24_linear_105_37" x1="63.5" y1="1034" x2="63.5" y2="1345.38" gradientUnits="userSpaceOnUse">
<stop stop-color="#F7DD43"/>
<stop offset="1" stop-color="#F7DD43" stop-opacity="0"/>
</linearGradient>
<linearGradient id="paint25_linear_105_37" x1="63.5" y1="1034" x2="63.5" y2="1345.38" gradientUnits="userSpaceOnUse">
<stop stop-color="#F7DD43"/>
<stop offset="1" stop-color="#F7DD43" stop-opacity="0"/>
</linearGradient>
<linearGradient id="paint26_linear_105_37" x1="63.5" y1="1034" x2="63.5" y2="1345.38" gradientUnits="userSpaceOnUse">
<stop stop-color="#F7DD43"/>
<stop offset="1" stop-color="#F7DD43" stop-opacity="0"/>
</linearGradient>
<linearGradient id="paint27_linear_105_37" x1="63.5" y1="1034" x2="63.5" y2="1345.38" gradientUnits="userSpaceOnUse">
<stop stop-color="#F7DD43"/>
<stop offset="1" stop-color="#F7DD43" stop-opacity="0"/>
</linearGradient>
<linearGradient id="paint28_linear_105_37" x1="63.5" y1="1034" x2="63.5" y2="1345.38" gradientUnits="userSpaceOnUse">
<stop stop-color="#F7DD43"/>
<stop offset="1" stop-color="#F7DD43" stop-opacity="0"/>
</linearGradient>
<linearGradient id="paint29_linear_105_37" x1="63.5" y1="1034" x2="63.5" y2="1345.38" gradientUnits="userSpaceOnUse">
<stop stop-color="#F7DD43"/>
<stop offset="1" stop-color="#F7DD43" stop-opacity="0"/>
</linearGradient>
<linearGradient id="paint30_linear_105_37" x1="63.5" y1="1034" x2="63.5" y2="1345.38" gradientUnits="userSpaceOnUse">
<stop stop-color="#F7DD43"/>
<stop offset="1" stop-color="#F7DD43" stop-opacity="0"/>
</linearGradient>
<linearGradient id="paint31_linear_105_37" x1="63.5" y1="1034" x2="63.5" y2="1345.38" gradientUnits="userSpaceOnUse">
<stop stop-color="#F7DD43"/>
<stop offset="1" stop-color="#F7DD43" stop-opacity="0"/>
</linearGradient>
<linearGradient id="paint32_linear_105_37" x1="63.5" y1="1034" x2="63.5" y2="1345.38" gradientUnits="userSpaceOnUse">
<stop stop-color="#F7DD43"/>
<stop offset="1" stop-color="#F7DD43" stop-opacity="0"/>
</linearGradient>
<linearGradient id="paint33_linear_105_37" x1="63.5" y1="1034" x2="63.5" y2="1345.38" gradientUnits="userSpaceOnUse">
<stop stop-color="#F7DD43"/>
<stop offset="1" stop-color="#F7DD43" stop-opacity="0"/>
</linearGradient>
<linearGradient id="paint34_linear_105_37" x1="63.5" y1="1034" x2="63.5" y2="1345.38" gradientUnits="userSpaceOnUse">
<stop stop-color="#F7DD43"/>
<stop offset="1" stop-color="#F7DD43" stop-opacity="0"/>
</linearGradient>
<linearGradient id="paint35_linear_105_37" x1="63.5" y1="1034" x2="63.5" y2="1345.38" gradientUnits="userSpaceOnUse">
<stop stop-color="#F7DD43"/>
<stop offset="1" stop-color="#F7DD43" stop-opacity="0"/>
</linearGradient>
<linearGradient id="paint36_linear_105_37" x1="63.5" y1="1034" x2="63.5" y2="1345.38" gradientUnits="userSpaceOnUse">
<stop stop-color="#F7DD43"/>
<stop offset="1" stop-color="#F7DD43" stop-opacity="0"/>
</linearGradient>
<linearGradient id="paint37_linear_105_37" x1="63.5" y1="1034" x2="63.5" y2="1345.38" gradientUnits="userSpaceOnUse">
<stop stop-color="#F7DD43"/>
<stop offset="1" stop-color="#F7DD43" stop-opacity="0"/>
</linearGradient>
<linearGradient id="paint38_linear_105_37" x1="63.5" y1="1034" x2="63.5" y2="1345.38" gradientUnits="userSpaceOnUse">
<stop stop-color="#F7DD43"/>
<stop offset="1" stop-color="#F7DD43" stop-opacity="0"/>
</linearGradient>
<linearGradient id="paint39_linear_105_37" x1="63.5" y1="1034" x2="63.5" y2="1345.38" gradientUnits="userSpaceOnUse">
<stop stop-color="#F7DD43"/>
<stop offset="1" stop-color="#F7DD43" stop-opacity="0"/>
</linearGradient>
<linearGradient id="paint40_linear_105_37" x1="63.5" y1="1034" x2="63.5" y2="1345.38" gradientUnits="userSpaceOnUse">
<stop stop-color="#F7DD43"/>
<stop offset="1" stop-color="#F7DD43" stop-opacity="0"/>
</linearGradient>
<linearGradient id="paint41_linear_105_37" x1="63.5" y1="1034" x2="63.5" y2="1345.38" gradientUnits="userSpaceOnUse">
<stop stop-color="#F7DD43"/>
<stop offset="1" stop-color="#F7DD43" stop-opacity="0"/>
</linearGradient>
<linearGradient id="paint42_linear_105_37" x1="63.5" y1="1034" x2="63.5" y2="1345.38" gradientUnits="userSpaceOnUse">
<stop stop-color="#F7DD43"/>
<stop offset="1" stop-color="#F7DD43" stop-opacity="0"/>
</linearGradient>
<linearGradient id="paint43_linear_105_37" x1="63.5" y1="1034" x2="63.5" y2="1345.38" gradientUnits="userSpaceOnUse">
<stop stop-color="#F7DD43"/>
<stop offset="1" stop-color="#F7DD43" stop-opacity="0"/>
</linearGradient>
<linearGradient id="paint44_linear_105_37" x1="63.5" y1="1034" x2="63.5" y2="1345.38" gradientUnits="userSpaceOnUse">
<stop stop-color="#F7DD43"/>
<stop offset="1" stop-color="#F7DD43" stop-opacity="0"/>
</linearGradient>
<linearGradient id="paint45_linear_105_37" x1="63.5" y1="1034" x2="63.5" y2="1345.38" gradientUnits="userSpaceOnUse">
<stop stop-color="#F7DD43"/>
<stop offset="1" stop-color="#F7DD43" stop-opacity="0"/>
</linearGradient>
<linearGradient id="paint46_linear_105_37" x1="63.5" y1="1034" x2="63.5" y2="1345.38" gradientUnits="userSpaceOnUse">
<stop stop-color="#F7DD43"/>
<stop offset="1" stop-color="#F7DD43" stop-opacity="0"/>
</linearGradient>
<linearGradient id="paint47_linear_105_37" x1="1283.5" y1="701" x2="1283.5" y2="999.818" gradientUnits="userSpaceOnUse">
<stop stop-color="#F7DD43"/>
<stop offset="1" stop-color="#F7DD43" stop-opacity="0"/>
</linearGradient>
<linearGradient id="paint48_linear_105_37" x1="1283.5" y1="701" x2="1283.5" y2="999.818" gradientUnits="userSpaceOnUse">
<stop stop-color="#F7DD43"/>
<stop offset="1" stop-color="#F7DD43" stop-opacity="0"/>
</linearGradient>
<linearGradient id="paint49_linear_105_37" x1="1283.5" y1="701" x2="1283.5" y2="999.818" gradientUnits="userSpaceOnUse">
<stop stop-color="#F7DD43"/>
<stop offset="1" stop-color="#F7DD43" stop-opacity="0"/>
</linearGradient>
<linearGradient id="paint50_linear_105_37" x1="1283.5" y1="701" x2="1283.5" y2="999.818" gradientUnits="userSpaceOnUse">
<stop stop-color="#F7DD43"/>
<stop offset="1" stop-color="#F7DD43" stop-opacity="0"/>
</linearGradient>
<linearGradient id="paint51_linear_105_37" x1="1283.5" y1="701" x2="1283.5" y2="999.818" gradientUnits="userSpaceOnUse">
<stop stop-color="#F7DD43"/>
<stop offset="1" stop-color="#F7DD43" stop-opacity="0"/>
</linearGradient>
<linearGradient id="paint52_linear_105_37" x1="1283.5" y1="701" x2="1283.5" y2="999.818" gradientUnits="userSpaceOnUse">
<stop stop-color="#F7DD43"/>
<stop offset="1" stop-color="#F7DD43" stop-opacity="0"/>
</linearGradient>
<linearGradient id="paint53_linear_105_37" x1="1283.5" y1="701" x2="1283.5" y2="999.818" gradientUnits="userSpaceOnUse">
<stop stop-color="#F7DD43"/>
<stop offset="1" stop-color="#F7DD43" stop-opacity="0"/>
</linearGradient>
<linearGradient id="paint54_linear_105_37" x1="1283.5" y1="701" x2="1283.5" y2="999.818" gradientUnits="userSpaceOnUse">
<stop stop-color="#F7DD43"/>
<stop offset="1" stop-color="#F7DD43" stop-opacity="0"/>
</linearGradient>
<linearGradient id="paint55_linear_105_37" x1="1283.5" y1="701" x2="1283.5" y2="999.818" gradientUnits="userSpaceOnUse">
<stop stop-color="#F7DD43"/>
<stop offset="1" stop-color="#F7DD43" stop-opacity="0"/>
</linearGradient>
<linearGradient id="paint56_linear_105_37" x1="1283.5" y1="701" x2="1283.5" y2="999.818" gradientUnits="userSpaceOnUse">
<stop stop-color="#F7DD43"/>
<stop offset="1" stop-color="#F7DD43" stop-opacity="0"/>
</linearGradient>
<linearGradient id="paint57_linear_105_37" x1="1283.5" y1="701" x2="1283.5" y2="999.818" gradientUnits="userSpaceOnUse">
<stop stop-color="#F7DD43"/>
<stop offset="1" stop-color="#F7DD43" stop-opacity="0"/>
</linearGradient>
<linearGradient id="paint58_linear_105_37" x1="1283.5" y1="701" x2="1283.5" y2="999.818" gradientUnits="userSpaceOnUse">
<stop stop-color="#F7DD43"/>
<stop offset="1" stop-color="#F7DD43" stop-opacity="0"/>
</linearGradient>
<linearGradient id="paint59_linear_105_37" x1="1283.5" y1="701" x2="1283.5" y2="999.818" gradientUnits="userSpaceOnUse">
<stop stop-color="#F7DD43"/>
<stop offset="1" stop-color="#F7DD43" stop-opacity="0"/>
</linearGradient>
<linearGradient id="paint60_linear_105_37" x1="1283.5" y1="701" x2="1283.5" y2="999.818" gradientUnits="userSpaceOnUse">
<stop stop-color="#F7DD43"/>
<stop offset="1" stop-color="#F7DD43" stop-opacity="0"/>
</linearGradient>
<linearGradient id="paint61_linear_105_37" x1="1283.5" y1="701" x2="1283.5" y2="999.818" gradientUnits="userSpaceOnUse">
<stop stop-color="#F7DD43"/>
<stop offset="1" stop-color="#F7DD43" stop-opacity="0"/>
</linearGradient>
<linearGradient id="paint62_linear_105_37" x1="1283.5" y1="701" x2="1283.5" y2="999.818" gradientUnits="userSpaceOnUse">
<stop stop-color="#F7DD43"/>
<stop offset="1" stop-color="#F7DD43" stop-opacity="0"/>
</linearGradient>
<linearGradient id="paint63_linear_105_37" x1="1283.5" y1="701" x2="1283.5" y2="999.818" gradientUnits="userSpaceOnUse">
<stop stop-color="#F7DD43"/>
<stop offset="1" stop-color="#F7DD43" stop-opacity="0"/>
</linearGradient>
<linearGradient id="paint64_linear_105_37" x1="1283.5" y1="701" x2="1283.5" y2="999.818" gradientUnits="userSpaceOnUse">
<stop stop-color="#F7DD43"/>
<stop offset="1" stop-color="#F7DD43" stop-opacity="0"/>
</linearGradient>
<linearGradient id="paint65_linear_105_37" x1="1283.5" y1="701" x2="1283.5" y2="999.818" gradientUnits="userSpaceOnUse">
<stop stop-color="#F7DD43"/>
<stop offset="1" stop-color="#F7DD43" stop-opacity="0"/>
</linearGradient>
<linearGradient id="paint66_linear_105_37" x1="1283.5" y1="701" x2="1283.5" y2="999.818" gradientUnits="userSpaceOnUse">
<stop stop-color="#F7DD43"/>
<stop offset="1" stop-color="#F7DD43" stop-opacity="0"/>
</linearGradient>
<linearGradient id="paint67_linear_105_37" x1="1283.5" y1="701" x2="1283.5" y2="999.818" gradientUnits="userSpaceOnUse">
<stop stop-color="#F7DD43"/>
<stop offset="1" stop-color="#F7DD43" stop-opacity="0"/>
</linearGradient>
<linearGradient id="paint68_linear_105_37" x1="1283.5" y1="701" x2="1283.5" y2="999.818" gradientUnits="userSpaceOnUse">
<stop stop-color="#F7DD43"/>
<stop offset="1" stop-color="#F7DD43" stop-opacity="0"/>
</linearGradient>
<linearGradient id="paint69_linear_105_37" x1="1283.5" y1="701" x2="1283.5" y2="999.818" gradientUnits="userSpaceOnUse">
<stop stop-color="#F7DD43"/>
<stop offset="1" stop-color="#F7DD43" stop-opacity="0"/>
</linearGradient>
<linearGradient id="paint70_linear_105_37" x1="1283.5" y1="701" x2="1283.5" y2="999.818" gradientUnits="userSpaceOnUse">
<stop stop-color="#F7DD43"/>
<stop offset="1" stop-color="#F7DD43" stop-opacity="0"/>
</linearGradient>
<linearGradient id="paint71_linear_105_37" x1="1283.5" y1="701" x2="1283.5" y2="999.818" gradientUnits="userSpaceOnUse">
<stop stop-color="#F7DD43"/>
<stop offset="1" stop-color="#F7DD43" stop-opacity="0"/>
</linearGradient>
<linearGradient id="paint72_linear_105_37" x1="1283.5" y1="701" x2="1283.5" y2="999.818" gradientUnits="userSpaceOnUse">
<stop stop-color="#F7DD43"/>
<stop offset="1" stop-color="#F7DD43" stop-opacity="0"/>
</linearGradient>
<linearGradient id="paint73_linear_105_37" x1="1283.5" y1="701" x2="1283.5" y2="999.818" gradientUnits="userSpaceOnUse">
<stop stop-color="#F7DD43"/>
<stop offset="1" stop-color="#F7DD43" stop-opacity="0"/>
</linearGradient>
<linearGradient id="paint74_linear_105_37" x1="1283.5" y1="701" x2="1283.5" y2="999.818" gradientUnits="userSpaceOnUse">
<stop stop-color="#F7DD43"/>
<stop offset="1" stop-color="#F7DD43" stop-opacity="0"/>
</linearGradient>
<linearGradient id="paint75_linear_105_37" x1="1283.5" y1="701" x2="1283.5" y2="999.818" gradientUnits="userSpaceOnUse">
<stop stop-color="#F7DD43"/>
<stop offset="1" stop-color="#F7DD43" stop-opacity="0"/>
</linearGradient>
<linearGradient id="paint76_linear_105_37" x1="1283.5" y1="701" x2="1283.5" y2="999.818" gradientUnits="userSpaceOnUse">
<stop stop-color="#F7DD43"/>
<stop offset="1" stop-color="#F7DD43" stop-opacity="0"/>
</linearGradient>
<linearGradient id="paint77_linear_105_37" x1="1283.5" y1="701" x2="1283.5" y2="999.818" gradientUnits="userSpaceOnUse">
<stop stop-color="#F7DD43"/>
<stop offset="1" stop-color="#F7DD43" stop-opacity="0"/>
</linearGradient>
<linearGradient id="paint78_linear_105_37" x1="1283.5" y1="701" x2="1283.5" y2="999.818" gradientUnits="userSpaceOnUse">
<stop stop-color="#F7DD43"/>
<stop offset="1" stop-color="#F7DD43" stop-opacity="0"/>
</linearGradient>
<linearGradient id="paint79_linear_105_37" x1="1283.5" y1="701" x2="1283.5" y2="999.818" gradientUnits="userSpaceOnUse">
<stop stop-color="#F7DD43"/>
<stop offset="1" stop-color="#F7DD43" stop-opacity="0"/>
</linearGradient>
<linearGradient id="paint80_linear_105_37" x1="1283.5" y1="701" x2="1283.5" y2="999.818" gradientUnits="userSpaceOnUse">
<stop stop-color="#F7DD43"/>
<stop offset="1" stop-color="#F7DD43" stop-opacity="0"/>
</linearGradient>
<linearGradient id="paint81_linear_105_37" x1="1283.5" y1="701" x2="1283.5" y2="999.818" gradientUnits="userSpaceOnUse">
<stop stop-color="#F7DD43"/>
<stop offset="1" stop-color="#F7DD43" stop-opacity="0"/>
</linearGradient>
<linearGradient id="paint82_linear_105_37" x1="1283.5" y1="701" x2="1283.5" y2="999.818" gradientUnits="userSpaceOnUse">
<stop stop-color="#F7DD43"/>
<stop offset="1" stop-color="#F7DD43" stop-opacity="0"/>
</linearGradient>
<linearGradient id="paint83_linear_105_37" x1="1283.5" y1="701" x2="1283.5" y2="999.818" gradientUnits="userSpaceOnUse">
<stop stop-color="#F7DD43"/>
<stop offset="1" stop-color="#F7DD43" stop-opacity="0"/>
</linearGradient>
<linearGradient id="paint84_linear_105_37" x1="1283.5" y1="701" x2="1283.5" y2="999.818" gradientUnits="userSpaceOnUse">
<stop stop-color="#F7DD43"/>
<stop offset="1" stop-color="#F7DD43" stop-opacity="0"/>
</linearGradient>
<linearGradient id="paint85_linear_105_37" x1="1283.5" y1="701" x2="1283.5" y2="999.818" gradientUnits="userSpaceOnUse">
<stop stop-color="#F7DD43"/>
<stop offset="1" stop-color="#F7DD43" stop-opacity="0"/>
</linearGradient>
<linearGradient id="paint86_linear_105_37" x1="1283.5" y1="701" x2="1283.5" y2="999.818" gradientUnits="userSpaceOnUse">
<stop stop-color="#F7DD43"/>
<stop offset="1" stop-color="#F7DD43" stop-opacity="0"/>
</linearGradient>
<linearGradient id="paint87_linear_105_37" x1="1283.5" y1="701" x2="1283.5" y2="999.818" gradientUnits="userSpaceOnUse">
<stop stop-color="#F7DD43"/>
<stop offset="1" stop-color="#F7DD43" stop-opacity="0"/>
</linearGradient>
<linearGradient id="paint88_linear_105_37" x1="1283.5" y1="701" x2="1283.5" y2="999.818" gradientUnits="userSpaceOnUse">
<stop stop-color="#F7DD43"/>
<stop offset="1" stop-color="#F7DD43" stop-opacity="0"/>
</linearGradient>
<linearGradient id="paint89_linear_105_37" x1="1283.5" y1="701" x2="1283.5" y2="999.818" gradientUnits="userSpaceOnUse">
<stop stop-color="#F7DD43"/>
<stop offset="1" stop-color="#F7DD43" stop-opacity="0"/>
</linearGradient>
<linearGradient id="paint90_linear_105_37" x1="1283.5" y1="701" x2="1283.5" y2="999.818" gradientUnits="userSpaceOnUse">
<stop stop-color="#F7DD43"/>
<stop offset="1" stop-color="#F7DD43" stop-opacity="0"/>
</linearGradient>
<linearGradient id="paint91_linear_105_37" x1="1283.5" y1="701" x2="1283.5" y2="999.818" gradientUnits="userSpaceOnUse">
<stop stop-color="#F7DD43"/>
<stop offset="1" stop-color="#F7DD43" stop-opacity="0"/>
</linearGradient>
<linearGradient id="paint92_linear_105_37" x1="1283.5" y1="701" x2="1283.5" y2="999.818" gradientUnits="userSpaceOnUse">
<stop stop-color="#F7DD43"/>
<stop offset="1" stop-color="#F7DD43" stop-opacity="0"/>
</linearGradient>
<linearGradient id="paint93_linear_105_37" x1="1283.5" y1="701" x2="1283.5" y2="999.818" gradientUnits="userSpaceOnUse">
<stop stop-color="#F7DD43"/>
<stop offset="1" stop-color="#F7DD43" stop-opacity="0"/>
</linearGradient>
</defs>
</svg>
